<?xml version="1.0" standalone="no"?>
<!DOCTYPE svg PUBLIC "-//W3C//DTD SVG 1.1//EN" "http://www.w3.org/Graphics/SVG/1.1/DTD/svg11.dtd">
<svg class="icon" width="200px" height="200.00px" viewBox="0 0 1024 1024" version="1.1" xmlns="http://www.w3.org/2000/svg">
    <path d="M907.499 103.494v93.992c0 42.029-34.133 76.162-76.162 76.162H663.221 155.307c-41.901 0-76.162-34.132-76.162-76.162v-93.992c0-41.902 34.26-76.162 76.162-76.162h676.03c42.029 0 76.162 34.26 76.162 76.162z m-44.576 93.991v-93.992c0-17.321-14.138-31.585-31.586-31.585H685.382v157.163h145.955c17.448 0 31.586-14.137 31.586-31.586z m-222.117 31.586V71.908H347.622v157.163h293.184z m-337.761 0V71.908H155.307c-17.321 0-31.585 14.264-31.585 31.585v93.992c0 17.449 14.265 31.585 31.585 31.585h147.738zM889.286 762.839c7.769 44.576 15.028 86.478 5.731 119.21-11.335 40.118-47.506 68.774-102.78 83.166 3.693-4.585 7.26-9.425 10.443-14.519 38.973-63.299 34.643-162.003 12.991-263.382h63.298c1.529 24.963 5.987 50.562 10.317 75.525zM876.55 641.082h-71.831c-8.915-33.878-19.231-67.501-30.185-99.723h65.973c14.137 0 30.184 46.36 36.043 99.723z" fill="#97C5EA" /><path d="M862.923 103.494v93.992c0 17.449-14.138 31.585-31.586 31.585H685.382V71.908h145.955c17.448 0 31.586 14.264 31.586 31.586zM347.622 71.908h293.184v157.163H347.622zM573.177 656.875c0.51 31.203 0.637 59.096 0.255 82.529l-46.104-41.392 45.849-41.137zM570.885 563.265c0.382 12.864 0.764 25.345 1.146 37.699-3.057 0.892-5.859 2.42-8.406 4.585l-69.666 62.534-69.539-62.534c-2.674-2.42-5.858-3.948-9.042-4.84 0.255-12.1 0.637-24.58 1.019-37.189 2.929-0.892 5.604-2.42 8.023-4.585l69.539-62.406 69.666 62.406a19.355 19.355 0 0 0 7.26 4.33zM560.568 340.002c0.637 11.59 1.401 23.307 2.038 35.024l-68.647 61.515-69.157-62.152 1.91-34.387h133.856zM460.59 698.013l-46.741 42.028c-0.382-23.816-0.255-52.09 0.255-83.803l46.486 41.775zM392.58 897.714c0-17.448 14.264-31.585 31.712-31.585 17.449 0 31.585 14.137 31.585 31.585s-14.137 31.713-31.585 31.713-31.712-14.265-31.712-31.713z" fill="#97C5EA" /><path d="M401.113 847.024c5.731 0 11.335-2.165 15.793-6.495 7.769-7.77 8.533-19.996 2.42-28.656-1.146-3.438-2.165-9.17-2.929-16.812a22.205 22.205 0 0 0 8.023-4.585l69.539-62.534 69.666 62.534c2.165 2.037 4.713 3.438 7.387 4.33-0.764 7.769-1.783 13.628-2.929 17.066-6.241 8.66-5.35 20.887 2.42 28.656a22.194 22.194 0 0 0 15.665 6.495c5.731 0 11.462-2.165 15.793-6.495 7.642-7.642 30.821-30.949 3.312-500.527h38.335c64.826 132.583 197.664 463.083 121.12 587.26-20.76 33.623-55.784 50.053-107.365 50.053H326.225c-51.581 0-86.605-16.43-107.365-50.053-76.416-124.177 56.293-454.677 121.12-587.26h42.156c-27.51 469.578-4.458 492.886 3.184 500.527 4.33 4.331 10.062 6.496 15.793 6.496z m23.179 19.105c-17.448 0-31.712 14.137-31.712 31.585s14.264 31.713 31.712 31.713c17.449 0 31.585-14.265 31.585-31.713s-14.136-31.585-31.585-31.585zM303.045 71.908v157.163H155.307c-17.321 0-31.585-14.137-31.585-31.585v-93.992c0-17.321 14.265-31.585 31.585-31.585h147.738zM144.354 541.359h64.827c-11.081 32.222-21.396 65.845-30.312 99.723h-71.067c5.858-53.363 22.16-99.723 36.552-99.723z" fill="#97C5EA" /><path d="M167.916 687.314c-21.651 101.379-25.982 200.083 12.991 263.382 3.057 4.967 6.495 9.552 10.062 14.009-54.638-14.646-90.554-42.92-101.889-82.656-9.297-32.732-2.038-74.634 5.859-119.082 4.33-25.091 8.788-50.689 10.316-75.652h62.661z" fill="#97C5EA" /><path d="M89.08 882.049c11.335 39.736 47.251 68.01 101.889 82.656-3.566-4.457-7.005-9.042-10.062-14.009-38.973-63.299-34.642-162.003-12.991-263.382h-62.662c-1.528 24.963-5.986 50.562-10.316 75.652-7.896 44.449-15.156 86.35-5.858 119.083z m237.145 95.265h331.137c51.581 0 86.605-16.43 107.365-50.053 76.544-124.177-56.294-454.677-121.12-587.26h-38.335c27.51 469.578 4.33 492.886-3.312 500.527-4.331 4.33-10.062 6.495-15.793 6.495a22.193 22.193 0 0 1-15.665-6.495c-7.77-7.77-8.661-19.996-2.42-28.656 1.146-3.438 2.165-9.298 2.929-17.066-2.674-0.892-5.222-2.293-7.387-4.33l-69.666-62.534-69.539 62.534a22.222 22.222 0 0 1-8.023 4.585c0.764 7.642 1.783 13.373 2.929 16.812 6.113 8.66 5.349 20.887-2.42 28.656-4.458 4.33-10.062 6.495-15.793 6.495s-11.462-2.165-15.792-6.495c-7.642-7.642-30.694-30.949-3.184-500.527H339.98c-64.827 132.583-197.536 463.083-121.12 587.26 20.76 33.623 55.784 50.052 107.365 50.052z m596.684-316.618c0.127 1.146 0.255 2.292 0.127 3.438-0.764 27.892 4.84 60.114 10.189 91.19 8.278 47.378 16.812 96.411 4.712 138.95-22.797 80.237-109.912 126.342-239.056 126.342-2.547 0-29.42 1.273-41.52 1.273H326.225c-11.462 0-36.807-1.273-39.1-1.273-130.035 0-217.914-46.104-240.839-126.342-12.227-42.539-3.566-91.572 4.712-139.078 5.477-31.076 11.08-63.171 10.188-91.063 0-1.146 0.127-2.293 0.255-3.438 2.165-42.539 14.646-163.914 82.912-163.914h80.619c38.081-102.652 77.436-181.489 81.256-189.13 3.821-7.514 11.59-12.227 19.996-12.227h331.137c8.406 0 16.175 4.712 19.996 12.227 3.82 7.642 43.175 86.478 81.256 189.13h81.893c67.757 0.002 80.111 121.121 82.403 163.915z m-27.891 221.353c9.297-32.732 2.037-74.634-5.731-119.21-4.33-24.963-8.788-50.562-10.316-75.524h-63.298c21.651 101.379 25.981 200.083-12.991 263.382-3.184 5.094-6.75 9.934-10.443 14.519 55.273-14.393 91.444-43.049 102.779-83.167z m-90.299-240.967h71.831c-5.858-53.363-21.906-99.723-36.043-99.723h-65.973c10.953 32.222 21.27 65.845 30.185 99.723z m-231.287 98.322c0.382-23.434 0.255-51.326-0.255-82.529l-45.85 41.138 46.105 41.391z m-1.401-138.44a27100.35 27100.35 0 0 1-1.146-37.699 19.355 19.355 0 0 1-7.26-4.33l-69.666-62.406-69.539 62.406c-2.42 2.165-5.094 3.693-8.023 4.585-0.382 12.609-0.764 25.09-1.019 37.189 3.184 0.892 6.368 2.42 9.042 4.84l69.539 62.534 69.666-62.534c2.547-2.165 5.35-3.694 8.406-4.585z m-44.704-134.493l41.393 37.189c-1.02-23.434-2.038-47.378-3.185-71.322l-38.208 34.133z m35.279-91.445c-0.637-11.717-1.401-23.435-2.038-35.024H426.712l-1.91 34.387 69.157 62.152 68.647-61.515zM418.562 504.297l42.029-37.826-38.718-34.77c-1.274 24.454-2.293 48.779-3.311 72.596z m-4.713 235.744l46.741-42.028-46.486-41.774c-0.51 31.712-0.637 59.986-0.255 83.802zM209.181 541.359h-64.827c-14.392 0-30.694 46.359-36.552 99.723h71.067c8.915-33.878 19.231-67.501 30.312-99.723z" fill="#97C5EA" /><path d="M945.707 78.021v93.992c0 42.029-34.133 76.162-76.162 76.162H701.43 193.515c-41.901 0-76.162-34.132-76.162-76.162V78.021c0-41.902 34.26-76.162 76.162-76.162h676.03c42.029 0.001 76.162 34.261 76.162 76.162z m-44.576 93.992V78.021c0-17.321-14.138-31.585-31.586-31.585H723.59v157.163h145.955c17.448 0 31.586-14.137 31.586-31.586z m-222.117 31.586V46.436H385.83v157.163h293.184z m-337.761 0V46.436H193.515c-17.321 0-31.585 14.264-31.585 31.585v93.992c0 17.449 14.265 31.585 31.585 31.585h147.738z" fill="#024687" /><path d="M927.494 737.367c7.77 44.576 15.028 86.478 5.731 119.209-11.335 40.119-47.506 68.775-102.78 83.167 3.693-4.585 7.26-9.425 10.443-14.52 38.973-63.298 34.643-162.003 12.991-263.382h63.298c1.529 24.964 5.987 50.563 10.317 75.526zM914.758 615.61h-71.831c-8.915-33.878-19.231-67.501-30.185-99.724h65.973c14.138 0.001 30.184 46.36 36.043 99.724zM901.131 78.021v93.992c0 17.449-14.138 31.585-31.586 31.585H723.59V46.436h145.955c17.448 0 31.586 14.264 31.586 31.585zM385.83 46.436h293.184v157.163H385.83zM611.386 631.403c0.509 31.203 0.637 59.095 0.254 82.529l-46.104-41.393 45.85-41.136zM609.093 537.793c0.382 12.863 0.765 25.345 1.146 37.698-3.057 0.892-5.858 2.42-8.406 4.585l-69.666 62.534-69.539-62.534c-2.675-2.419-5.859-3.947-9.043-4.839 0.255-12.1 0.637-24.581 1.019-37.189 2.929-0.892 5.604-2.42 8.024-4.585l69.539-62.407 69.666 62.407a19.368 19.368 0 0 0 7.26 4.33zM606.928 478.188l-41.393-37.189 38.209-34.133c1.146 23.944 2.165 47.888 3.184 71.322zM598.776 314.53c0.637 11.59 1.401 23.307 2.038 35.024l-68.647 61.515-69.157-62.152c0.637-11.462 1.273-22.925 1.911-34.387h133.855zM498.798 440.999l-42.029 37.826c1.019-23.816 2.038-48.143 3.312-72.596l38.717 34.77zM498.798 672.54l-46.741 42.029c-0.382-23.816-0.254-52.091 0.255-83.803l46.486 41.774z" fill="#FFFFFF" /><path d="M462.501 840.656c17.448 0 31.585 14.137 31.585 31.586 0 17.448-14.137 31.712-31.585 31.712-17.449 0-31.713-14.264-31.713-31.712 0-17.449 14.264-31.586 31.713-31.586z" fill="#024687" /><path d="M695.57 951.842H364.433c-51.581 0-86.605-16.43-107.365-50.053-76.417-124.176 56.293-454.677 121.12-587.259h42.156c-27.51 469.579-4.458 492.885 3.184 500.527 4.331 4.33 10.062 6.496 15.793 6.496s11.335-2.166 15.792-6.496c7.769-7.769 8.533-19.995 2.42-28.656-1.146-3.438-2.165-9.17-2.929-16.812a22.217 22.217 0 0 0 8.024-4.585l69.539-62.534 69.666 62.534c2.165 2.038 4.713 3.439 7.387 4.33-0.764 7.77-1.782 13.628-2.929 17.066-6.241 8.661-5.35 20.888 2.42 28.656a22.195 22.195 0 0 0 15.665 6.496c5.731 0 11.463-2.166 15.793-6.496 7.642-7.642 30.821-30.948 3.312-500.527h38.335c64.827 132.583 197.664 463.083 121.12 587.259-20.76 33.624-55.785 50.054-107.366 50.054zM462.501 840.656c-17.449 0-31.713 14.137-31.713 31.586 0 17.448 14.264 31.712 31.713 31.712 17.448 0 31.585-14.264 31.585-31.712 0-17.449-14.137-31.586-31.585-31.586zM341.253 46.436v157.163H193.515c-17.321 0-31.585-14.137-31.585-31.585V78.021c0-17.321 14.265-31.585 31.585-31.585h147.738zM182.563 515.887h64.826c-11.08 32.223-21.396 65.846-30.312 99.724H146.01c5.859-53.365 22.16-99.724 36.553-99.724z" fill="#FFFFFF" /><path d="M229.176 939.233c-54.638-14.646-90.553-42.921-101.889-82.657-9.297-32.731-2.038-74.633 5.859-119.082 4.33-25.09 8.788-50.689 10.316-75.652h62.662c-21.651 101.379-25.981 200.084 12.991 263.382 3.056 4.966 6.495 9.551 10.061 14.009z" fill="#FFFFFF" /><path d="M127.288 856.576c11.335 39.736 47.251 68.011 101.889 82.657-3.566-4.458-7.005-9.043-10.062-14.01-38.972-63.298-34.642-162.003-12.991-263.382h-62.662c-1.528 24.963-5.986 50.563-10.316 75.652-7.896 44.45-15.155 86.352-5.858 119.083zM695.57 996.418H364.433c-11.462 0-36.807-1.273-39.1-1.273-130.035 0-217.914-46.104-240.839-126.342-12.227-42.538-3.566-91.572 4.712-139.077 5.477-31.076 11.081-63.171 10.189-91.063 0-1.146 0.127-2.292 0.254-3.438 2.166-42.538 14.646-163.913 82.912-163.913h80.619c38.081-102.652 77.435-181.489 81.256-189.13 3.821-7.514 11.59-12.227 19.996-12.227H695.57c8.406 0 16.175 4.712 19.996 12.227 3.82 7.642 43.175 86.478 81.256 189.13h81.893c67.756 0 80.11 121.12 82.402 163.913 0.128 1.146 0.255 2.293 0.128 3.438-0.765 27.893 4.839 60.114 10.188 91.19 8.278 47.378 16.812 96.412 4.712 138.95-22.796 80.237-109.912 126.342-239.055 126.342-2.547 0-29.42 1.273-41.52 1.273z m-331.137-44.576H695.57c51.581 0 86.605-16.43 107.365-50.053 76.544-124.176-56.293-454.677-121.12-587.259H643.48c27.51 469.579 4.33 492.885-3.312 500.527-4.33 4.33-10.062 6.496-15.793 6.496a22.194 22.194 0 0 1-15.665-6.496c-7.77-7.769-8.661-19.995-2.42-28.656 1.146-3.438 2.165-9.297 2.929-17.066-2.674-0.891-5.222-2.292-7.387-4.33l-69.666-62.534-69.539 62.534a22.217 22.217 0 0 1-8.024 4.585c0.764 7.642 1.783 13.373 2.929 16.812 6.113 8.661 5.349 20.888-2.42 28.656-4.458 4.33-10.062 6.496-15.792 6.496-5.731 0-11.462-2.166-15.793-6.496-7.642-7.642-30.694-30.948-3.184-500.527h-42.156c-64.826 132.583-197.536 463.083-121.12 587.259 20.761 33.622 55.785 50.052 107.366 50.052z m568.793-95.266c9.297-32.731 2.038-74.633-5.731-119.209-4.33-24.963-8.788-50.563-10.316-75.525H853.88c21.651 101.379 25.981 200.084-12.991 263.382-3.184 5.095-6.75 9.935-10.443 14.52 55.274-14.392 91.445-43.049 102.78-83.168zM842.927 615.61h71.831c-5.858-53.364-21.905-99.724-36.043-99.724h-65.973c10.953 32.223 21.27 65.846 30.185 99.724zM611.64 713.933c0.383-23.435 0.255-51.326-0.254-82.529l-45.851 41.137 46.105 41.392z m-1.401-138.442c-0.382-12.354-0.765-24.835-1.146-37.698a19.368 19.368 0 0 1-7.26-4.33l-69.666-62.407-69.539 62.407c-2.42 2.165-5.095 3.693-8.024 4.585-0.382 12.608-0.764 25.09-1.019 37.189 3.184 0.892 6.368 2.42 9.043 4.839l69.539 62.534 69.666-62.534c2.548-2.165 5.35-3.693 8.406-4.585z m-44.704-134.492l41.393 37.189c-1.019-23.434-2.038-47.378-3.184-71.322l-38.209 34.133z m35.279-91.445c-0.637-11.717-1.401-23.435-2.038-35.024H464.921l-1.911 34.387 69.157 62.152 68.647-61.515zM456.77 478.825l42.029-37.826-38.717-34.77c-1.275 24.454-2.293 48.78-3.312 72.596z m-4.713 235.744l46.741-42.029-46.486-41.773c-0.509 31.712-0.637 59.986-0.255 83.802zM247.389 515.887h-64.826c-14.392 0-30.694 46.359-36.553 99.724h71.067c8.915-33.879 19.232-67.502 30.312-99.724z" fill="#024687" /></svg>
