<?xml version="1.0" standalone="no"?><!DOCTYPE svg PUBLIC "-//W3C//DTD SVG 1.1//EN" "http://www.w3.org/Graphics/SVG/1.1/DTD/svg11.dtd"><svg class="icon" width="200px" height="200.00px" viewBox="0 0 1024 1024" version="1.1" xmlns="http://www.w3.org/2000/svg"><path d="M1000.024 151.465v129.097c0 10.349-8.429 18.671-18.671 18.671H202.501l-62.521-0.747c-10.243-0.106-18.458-8.429-18.458-18.671v-21.552c0-0.96 0.107-2.027 0.32-2.988 1.813-11.416 6.294-38.089 275.372-121.629 1.814-0.533 3.734-0.854 5.548-0.854h578.591c10.243 0.002 18.671 8.431 18.671 18.673z m-37.341 110.427v-91.755h-557.04c-99.65 31.047-212.637 72.124-242.725 91.329l39.796 0.427h759.969zM998.531 689.94v75.751c0 10.242-8.322 18.671-18.672 18.671h-66.255c-8.963 0-16.645-6.401-18.352-15.15-13.017-67.002-72.124-115.653-140.514-115.653S627.242 702.21 614.226 769.212c-1.707 8.749-9.389 15.15-18.351 15.15H441.492c-8.962 0-16.644-6.401-18.351-15.15-13.017-67.002-72.124-115.653-140.514-115.653S155.13 702.21 142.114 769.212c-1.707 8.749-9.389 15.15-18.351 15.15H18.671C8.322 784.362 0 775.934 0 765.691V689.94c0-10.243 8.322-18.672 18.671-18.672h16.75c-4.587-39.369-5.548-84.393 8.215-110.213 35.742-66.789 203.889-210.183 246.459-210.183h599.183c41.396 0 75.111 33.715 75.111 75.111v245.285h15.47c10.35 0.001 18.672 8.429 18.672 18.672z m-37.343 57.081v-38.409h-15.47a18.624 18.624 0 0 1-18.672-18.671V425.984c0-20.805-16.964-37.769-37.769-37.769H290.096c-24.753 3.841-180.31 128.244-213.491 190.445-8.749 16.324-9.282 56.867-1.387 108.506 0.854 5.335-0.747 10.776-4.268 14.937s-8.749 6.509-14.19 6.509H37.342v38.409h71.697c21.979-76.712 92.609-130.805 173.588-130.805s151.609 54.093 173.588 130.805h124.937c21.979-76.712 92.608-130.805 173.588-130.805s151.609 54.093 173.588 130.805h32.86z" fill="#97C5EA" /><path d="M962.683 170.136v91.755H202.715l-39.796-0.427c30.087-19.205 143.074-60.281 242.725-91.329h557.039zM754.313 680.231c64.336 0 116.614 52.279 116.614 116.614 0 64.229-52.278 116.508-116.614 116.508-64.229 0-116.508-52.279-116.508-116.508 0-64.334 52.279-116.614 116.508-116.614z m79.272 116.615c0-43.744-35.528-79.272-79.272-79.272-43.637 0-79.165 35.528-79.165 79.272 0 43.637 35.528 79.165 79.165 79.165 43.744 0 79.272-35.529 79.272-79.165zM841.054 499.281a18.623 18.623 0 0 1 18.671 18.671 18.624 18.624 0 0 1-18.671 18.672h-386.76a18.624 18.624 0 0 1-18.671-18.672v-81.085c0-10.349 8.322-18.671 18.671-18.671s18.671 8.322 18.671 18.671v62.415h368.089z" fill="#97C5EA" /><path d="M754.313 717.573c43.744 0 79.272 35.528 79.272 79.272 0 43.637-35.528 79.165-79.272 79.165-43.637 0-79.165-35.528-79.165-79.165-0.001-43.743 35.528-79.272 79.165-79.272zM385.051 418.622c9.922 0.64 17.604 8.962 17.498 18.885l-0.854 80.659c-0.213 10.242-8.535 18.458-18.671 18.458h-0.107l-159.078-0.107c-7.469 0-14.19-4.374-17.178-11.202-2.88-6.828-1.6-14.831 3.521-20.271 15.47-16.431 66.896-71.057 77.565-79.379 6.829-5.228 17.924-8.429 52.279-8.429 22.087-0.001 44.065 1.386 45.025 1.386z m-20.591 80.659l0.533-44.17a593.693 593.693 0 0 0-24.966-0.533c-20.271 0-28.167 1.173-30.727 1.813-5.868 5.228-22.726 22.512-42.144 42.784l97.304 0.106zM282.627 680.231c64.229 0 116.615 52.279 116.615 116.614 0 64.229-52.386 116.508-116.615 116.508-64.335 0-116.614-52.279-116.614-116.508 0-64.334 52.279-116.614 116.614-116.614z m79.272 116.615c0-43.744-35.635-79.272-79.272-79.272-43.744 0-79.272 35.528-79.272 79.272 0 43.637 35.528 79.165 79.272 79.165 43.637 0 79.272-35.529 79.272-79.165z" fill="#97C5EA" /><path d="M454.294 418.195a18.623 18.623 0 0 0-18.671 18.671v81.085a18.624 18.624 0 0 0 18.671 18.672h386.759a18.624 18.624 0 0 0 18.671-18.672 18.623 18.623 0 0 0-18.671-18.671H472.966v-62.415a18.624 18.624 0 0 0-18.672-18.67z m-164.198-29.98h599.183c20.805 0 37.769 16.964 37.769 37.769V689.94a18.624 18.624 0 0 0 18.672 18.671h15.47v38.409h-32.861c-21.979-76.712-92.608-130.805-173.588-130.805s-151.611 54.094-173.59 130.806H456.215c-21.979-76.712-92.608-130.805-173.588-130.805-80.979 0-151.609 54.093-173.588 130.805H37.342v-38.409H56.76c5.441 0 10.669-2.348 14.19-6.509 3.521-4.16 5.121-9.602 4.268-14.937-7.896-51.639-7.362-92.182 1.387-108.506 33.181-62.201 188.738-186.604 213.491-190.445z m49.931 29.02c-34.355 0-45.451 3.201-52.279 8.429-10.669 8.322-62.095 62.948-77.565 79.379-5.121 5.441-6.401 13.443-3.521 20.271 2.988 6.828 9.709 11.202 17.178 11.202l159.078 0.107h0.107c10.136 0 18.458-8.216 18.671-18.458l0.854-80.659c0.107-9.922-7.575-18.245-17.498-18.885-0.961 0.001-22.939-1.386-45.025-1.386z" fill="#97C5EA" /><path d="M364.993 455.111l-0.533 44.17-97.303-0.106c19.418-20.271 36.275-37.556 42.144-42.784 2.561-0.64 10.456-1.813 30.727-1.813 8.748 0 17.604 0.213 24.965 0.533zM282.627 717.573c43.637 0 79.272 35.528 79.272 79.272 0 43.637-35.635 79.165-79.272 79.165-43.744 0-79.272-35.528-79.272-79.165 0-43.743 35.528-79.272 79.272-79.272z" fill="#97C5EA" /><path d="M1020.294 127.672V256.77a18.623 18.623 0 0 1-18.671 18.671H222.878l-62.521-0.747c-10.243-0.107-18.458-8.429-18.458-18.671v-21.552c0-0.96 0-2.027 0.213-2.987 1.92-11.416 6.295-38.089 275.479-121.629 1.814-0.534 3.627-0.854 5.548-0.854h578.484c10.35 0 18.671 8.429 18.671 18.671z m-37.342 110.427v-91.755H425.913c-99.65 31.047-212.638 72.124-242.618 91.328l39.796 0.427h759.861zM1018.907 666.147v75.751c0 10.243-8.322 18.672-18.671 18.672h-66.362c-8.855 0-16.537-6.402-18.244-15.15-13.123-67.003-72.23-115.654-140.62-115.654-68.283 0-127.391 48.651-140.514 115.654-1.707 8.748-9.389 15.15-18.352 15.15H461.761c-8.855 0-16.537-6.402-18.244-15.15-13.123-67.003-72.23-115.654-140.62-115.654-68.283 0-127.391 48.651-140.514 115.654-1.707 8.748-9.389 15.15-18.351 15.15H38.941c-10.243 0-18.671-8.429-18.671-18.672v-75.751c0-10.242 8.429-18.671 18.671-18.671h16.75c-4.588-39.37-5.548-84.394 8.215-110.213 35.742-66.79 203.995-210.184 246.565-210.184h599.076c41.503 0 75.218 33.714 75.218 75.111v245.285h15.471c10.349 0.002 18.671 8.43 18.671 18.672z m-37.342 57.081v-38.409h-15.471a18.623 18.623 0 0 1-18.671-18.671V402.191c0-20.805-16.964-37.769-37.876-37.769H310.472c-24.753 3.841-180.31 128.244-213.598 190.445-8.749 16.324-9.282 56.867-1.28 108.506 0.854 5.335-0.747 10.776-4.268 14.938-3.627 4.161-8.749 6.508-14.19 6.508H57.612v38.409h71.804c21.872-76.712 92.609-130.805 173.481-130.805 80.979 0 151.716 54.093 173.588 130.805h125.043c21.871-76.712 92.502-130.805 173.481-130.805s151.716 54.093 173.588 130.805h32.968z" fill="#024687" /><path d="M982.952 146.344v91.755H223.091l-39.796-0.427c29.98-19.205 142.968-60.281 242.618-91.328h557.039z" fill="#FFFFFF" /><path d="M774.689 656.438c64.335 0 116.614 52.279 116.614 116.614 0 64.229-52.279 116.508-116.614 116.508-64.336 0-116.614-52.279-116.614-116.508 0-64.334 52.279-116.614 116.614-116.614z m79.273 116.615c0-43.743-35.529-79.272-79.272-79.272-43.744 0-79.272 35.529-79.272 79.272 0 43.637 35.528 79.166 79.272 79.166 43.743 0 79.272-35.53 79.272-79.166zM861.323 475.489c10.349 0 18.671 8.322 18.671 18.671s-8.322 18.671-18.671 18.671H474.671A18.623 18.623 0 0 1 456 494.16v-81.086a18.623 18.623 0 0 1 18.671-18.671c10.243 0 18.671 8.322 18.671 18.671v62.415h367.981z" fill="#024687" /><path d="M774.689 693.78c43.743 0 79.272 35.529 79.272 79.272 0 43.637-35.529 79.166-79.272 79.166-43.744 0-79.272-35.529-79.272-79.166 0-43.742 35.528-79.272 79.272-79.272z" fill="#FFFFFF" /><path d="M405.428 394.83c9.815 0.64 17.497 8.962 17.391 18.884l-0.854 80.659c-0.107 10.243-8.429 18.458-18.671 18.458l-159.185-0.107c-7.361 0-14.19-4.375-17.07-11.203-2.988-6.828-1.601-14.83 3.521-20.271 15.47-16.431 66.79-71.057 77.565-79.379 6.828-5.228 17.924-8.429 52.172-8.429 22.192 0 44.171 1.388 45.131 1.388z m-20.592 80.659l0.534-44.171a603.13 603.13 0 0 0-25.073-0.533c-20.165 0-28.06 1.174-30.728 1.814-5.761 5.228-22.725 22.512-42.037 42.783l97.304 0.107zM302.897 656.438c64.335 0 116.614 52.279 116.614 116.614 0 64.229-52.279 116.508-116.614 116.508-64.229 0-116.508-52.279-116.508-116.508 0-64.334 52.279-116.614 116.508-116.614z m79.272 116.615c0-43.743-35.528-79.272-79.272-79.272-43.637 0-79.166 35.529-79.166 79.272 0 43.637 35.528 79.166 79.166 79.166 43.744 0 79.272-35.53 79.272-79.166z" fill="#024687" /><path d="M474.671 394.403A18.623 18.623 0 0 0 456 413.074v81.086a18.623 18.623 0 0 0 18.671 18.671h386.652c10.349 0 18.671-8.322 18.671-18.671s-8.322-18.671-18.671-18.671H493.342v-62.415c0-10.349-8.428-18.671-18.671-18.671z m472.753 271.744a18.623 18.623 0 0 0 18.671 18.671h15.471v38.409h-32.968c-21.872-76.712-92.609-130.805-173.588-130.805S623.4 646.515 601.529 723.227H476.485c-21.872-76.712-92.609-130.805-173.588-130.805-80.873 0-151.609 54.093-173.481 130.805H57.612v-38.409h19.524c5.441 0 10.563-2.347 14.19-6.508 3.521-4.161 5.121-9.603 4.268-14.938-8.002-51.639-7.468-92.182 1.28-108.506 33.288-62.201 188.845-186.604 213.598-190.445h599.076c20.912 0 37.876 16.964 37.876 37.769v263.957zM360.297 393.442c-34.248 0-45.344 3.201-52.172 8.429-10.776 8.322-62.095 62.948-77.565 79.379-5.121 5.441-6.508 13.443-3.521 20.271 2.88 6.828 9.709 11.203 17.07 11.203l159.185 0.107c10.243 0 18.564-8.215 18.671-18.458l0.854-80.659c0.106-9.922-7.575-18.244-17.391-18.884-0.96 0-22.939-1.388-45.131-1.388z" fill="#FFFFFF" /><path d="M385.37 431.318l-0.534 44.171-97.303-0.107c19.312-20.271 36.275-37.556 42.037-42.783 2.667-0.64 10.563-1.814 30.728-1.814 8.748 0 17.603 0.213 25.072 0.533zM302.897 693.78c43.744 0 79.272 35.529 79.272 79.272 0 43.637-35.528 79.166-79.272 79.166-43.637 0-79.166-35.529-79.166-79.166 0-43.742 35.529-79.272 79.166-79.272z" fill="#FFFFFF" /></svg>