<?xml version="1.0" standalone="no"?><!DOCTYPE svg PUBLIC "-//W3C//DTD SVG 1.1//EN" "http://www.w3.org/Graphics/SVG/1.1/DTD/svg11.dtd"><svg class="icon" width="200px" height="200.00px" viewBox="0 0 1024 1024" version="1.1" xmlns="http://www.w3.org/2000/svg"><path d="M932.069 428.04v194.202c0 11.803-9.613 21.294-21.294 21.294H552.67v349.101c0 11.803-9.612 21.294-21.294 21.294h-63.03a21.24 21.24 0 0 1-21.294-21.294V643.536H211.966c-4.624 0-9.126-1.46-12.898-4.259L76.049 545.462c-5.232-4.016-8.274-10.1-8.396-16.549-0.122-6.57 2.799-12.776 7.788-16.913l123.14-100.386a20.825 20.825 0 0 1 13.385-4.867h235.086v-63.274H88.947c-11.803 0-21.294-9.612-21.294-21.294V127.855c0-11.681 9.491-21.294 21.294-21.294h358.105v-52.2a21.24 21.24 0 0 1 21.294-21.294h63.03c11.682 0 21.294 9.491 21.294 21.294v52.201h234.965c4.867 0 9.612 1.704 13.507 4.867L924.16 211.815c5.11 4.137 7.909 10.343 7.909 16.914-0.122 6.449-3.286 12.655-8.396 16.548l-123.14 93.815c-3.772 2.799-8.274 4.38-12.898 4.38H552.67v63.274h358.105c11.681 0 21.294 9.613 21.294 21.294z m-42.588 172.908V449.334H531.376a21.24 21.24 0 0 1-21.294-21.294V322.178a21.24 21.24 0 0 1 21.294-21.294h249.079l95.885-73.13-96.249-78.605H531.376a21.24 21.24 0 0 1-21.294-21.294v-52.2H489.64v52.201c0 11.803-9.613 21.294-21.294 21.294H110.24v151.735h358.105c11.681 0 21.294 9.491 21.294 21.294V428.04c0 11.803-9.613 21.294-21.294 21.294H219.631L123.26 527.94l96.006 73.008h249.079c11.681 0 21.294 9.612 21.294 21.294v349.101h20.442V622.242c0-11.682 9.491-21.294 21.294-21.294h358.106z" fill="#96C4E9" /><path d="M889.481 449.334v151.614H531.376c-11.803 0-21.294 9.612-21.294 21.294v349.101H489.64V622.242c0-11.682-9.613-21.294-21.294-21.294h-249.08L123.26 527.94l96.371-78.606h248.714c11.681 0 21.294-9.491 21.294-21.294h20.442a21.24 21.24 0 0 0 21.294 21.294h358.106zM876.34 227.755l-95.885 73.13H531.376a21.24 21.24 0 0 0-21.294 21.294V428.04H489.64V322.178c0-11.803-9.613-21.294-21.294-21.294H110.24V149.149h358.105c11.681 0 21.294-9.491 21.294-21.294v-52.2h20.442v52.201a21.24 21.24 0 0 0 21.294 21.294H780.09l96.25 78.605z" fill="#96C4E9" /><path d="M956.346 405.163v194.202a21.239 21.239 0 0 1-21.294 21.294H577.07V969.76c0 11.682-9.613 21.294-21.295 21.294h-63.151c-11.682 0-21.294-9.612-21.294-21.294V620.659H236.365c-4.624 0-9.126-1.582-12.898-4.38l-123.019-93.815c-5.232-3.895-8.274-9.978-8.396-16.549s2.677-12.776 7.788-16.914l123.14-100.386c3.772-3.042 8.518-4.746 13.385-4.746h234.964v-63.396H113.346a21.24 21.24 0 0 1-21.294-21.294V104.978a21.24 21.24 0 0 1 21.294-21.294h357.983V31.362c0-11.682 9.613-21.294 21.294-21.294h63.151c11.682 0 21.295 9.612 21.295 21.294v52.322h234.964c4.867 0 9.613 1.704 13.385 4.746l123.141 100.508c4.989 4.016 7.909 10.221 7.787 16.792-0.121 6.571-3.163 12.655-8.396 16.548l-123.019 93.815c-3.772 2.799-8.274 4.38-12.898 4.38H577.07v63.396h357.982a21.24 21.24 0 0 1 21.294 21.294z m-42.587 172.908V426.458H555.775c-11.803 0-21.294-9.613-21.294-21.294V299.18a21.24 21.24 0 0 1 21.294-21.294h249.08l95.884-73.13-96.371-78.483H555.775c-11.803 0-21.294-9.613-21.294-21.294V52.656h-20.563v52.322c0 11.682-9.491 21.294-21.294 21.294H134.64v151.613h357.983a21.24 21.24 0 0 1 21.294 21.294v105.983c0 11.682-9.491 21.294-21.294 21.294H244.031l-96.371 78.483 95.884 73.13h249.08a21.24 21.24 0 0 1 21.294 21.294v349.101h20.563V599.365a21.24 21.24 0 0 1 21.294-21.294h357.984z" fill="#024686" /><path d="M913.759 426.458v151.613H555.775a21.24 21.24 0 0 0-21.294 21.294v349.101h-20.563V599.365a21.24 21.24 0 0 0-21.294-21.294h-249.08l-95.884-73.13 96.371-78.483h248.593c11.803 0 21.294-9.613 21.294-21.294h20.563c0 11.682 9.491 21.294 21.294 21.294h357.984zM900.739 204.756l-95.884 73.13h-249.08a21.24 21.24 0 0 0-21.294 21.294v105.983h-20.563V299.18a21.24 21.24 0 0 0-21.294-21.294H134.64V126.273h357.983c11.803 0 21.294-9.613 21.294-21.294V52.656h20.563v52.322c0 11.682 9.491 21.294 21.294 21.294h248.593l96.372 78.484z" fill="#FFFFFF" /></svg>