<?xml version="1.0" standalone="no"?><!DOCTYPE svg PUBLIC "-//W3C//DTD SVG 1.1//EN" "http://www.w3.org/Graphics/SVG/1.1/DTD/svg11.dtd"><svg class="icon" width="200px" height="200.00px" viewBox="0 0 1024 1024" version="1.1" xmlns="http://www.w3.org/2000/svg"><path d="M771.175 381.859v447.344c0 32.925-26.751 59.79-59.676 59.79h-431.91c-33.039 0-59.791-26.865-59.791-59.79V381.859c0-32.925 26.751-59.676 59.791-59.676h431.91c32.925 0 59.676 26.752 59.676 59.676z m-40.013 447.344V381.859c0-10.86-8.803-19.663-19.663-19.663h-431.91c-10.861 0-19.778 8.803-19.778 19.663v447.344c0 10.86 8.917 19.777 19.778 19.777h431.91c10.86 0 19.663-8.917 19.663-19.777z" fill="#97C5EA" /><path d="M731.162 381.859v447.344c0 10.86-8.803 19.777-19.663 19.777h-431.91c-10.861 0-19.778-8.917-19.778-19.777V381.859c0-10.86 8.917-19.663 19.778-19.663h431.91c10.86 0 19.663 8.803 19.663 19.663zM679.717 916.431c28.01 0 50.874 22.865 50.874 50.988 0 28.009-22.864 50.873-50.874 50.873-28.123 0-50.987-22.864-50.987-50.873-0.001-28.123 22.864-50.988 50.987-50.988zM600.949 30.775c11.089 0 20.006 9.032 20.006 20.006a19.955 19.955 0 0 1-20.006 20.006h-33.726v144.732c0 10.975-8.917 20.006-20.006 20.006-11.09 0-20.007-9.031-20.007-20.006V70.788h-62.877V215.52c0 10.975-8.917 20.006-20.006 20.006s-20.007-9.031-20.007-20.006V70.788h-35.097c-10.975 0-20.006-8.917-20.006-20.006 0-10.975 9.031-20.006 20.006-20.006h211.726z" fill="#97C5EA" /><path d="M432.095 300.005h-2.515c-107.92-0.458-167.596 0.229-177.542 2.172-56.933 13.033-56.589 71.452-56.475 73.967 0.114 10.975-8.688 20.121-19.664 20.349h-0.343c-10.975 0-19.892-8.803-20.007-19.664-0.571-32.239 17.034-97.517 87.686-113.75 12.232-2.744 64.478-3.658 186.46-3.087l12.347 0.114 10.518-0.114c242.021-0.686 283.748 1.029 292.665 3.087 70.537 16.12 89.058 81.283 88.943 113.408a19.955 19.955 0 0 1-20.007 20.006c-11.089-0.114-20.006-9.031-20.006-20.006 0-2.858-1.258-61.505-57.733-74.31-8.116-1.372-64.363-2.858-283.748-2.172h-3.658c-0.114 0-0.229 0.114-0.343 0.114h-16.005c-0.23 0-0.459-0.114-0.573-0.114zM308.741 916.431c28.009 0 50.874 22.865 50.874 50.988 0 28.009-22.865 50.873-50.874 50.873-28.124 0-50.874-22.864-50.874-50.873 0.001-28.123 22.751-50.988 50.874-50.988z" fill="#97C5EA" /><path d="M805.472 358.995v447.344c0 32.925-26.751 59.79-59.676 59.79h-431.91c-33.04 0-59.791-26.865-59.791-59.79V358.995c0-32.925 26.751-59.676 59.791-59.676h431.91c32.925 0 59.676 26.751 59.676 59.676z m-40.013 447.344V358.995c0-10.861-8.803-19.664-19.663-19.664h-431.91c-10.861 0-19.778 8.803-19.778 19.664v447.344c0 10.86 8.917 19.777 19.778 19.777h431.91c10.86 0 19.663-8.917 19.663-19.777z" fill="#024687" /><path d="M765.459 358.995v447.344c0 10.86-8.803 19.777-19.663 19.777h-431.91c-10.861 0-19.778-8.917-19.778-19.777V358.995c0-10.861 8.917-19.664 19.778-19.664h431.91c10.86 0.001 19.663 8.803 19.663 19.664z" fill="#FFFFFF" /><path d="M714.014 893.566c28.009 0 50.874 22.864 50.874 50.988 0 28.009-22.865 50.873-50.874 50.873-28.123 0-50.987-22.864-50.987-50.873-0.001-28.123 22.864-50.988 50.987-50.988zM635.246 7.911c11.089 0 20.006 9.031 20.006 20.006a19.955 19.955 0 0 1-20.006 20.006H601.52v144.732c0 10.975-8.917 20.007-20.006 20.007-11.09 0-20.007-9.032-20.007-20.007V47.924H498.63v144.732c0 10.975-8.917 20.007-20.006 20.007s-20.006-9.032-20.006-20.007V47.924h-35.097c-10.975 0-20.006-8.917-20.006-20.006 0-10.975 9.032-20.006 20.006-20.006h211.725zM466.392 277.14h-2.515c-107.92-0.457-167.597 0.229-177.542 2.172-56.933 13.033-56.59 71.451-56.476 73.966 0.115 10.975-8.688 20.121-19.663 20.35h-0.343c-10.975 0-19.892-8.803-20.006-19.664-0.572-32.239 17.034-97.517 87.686-113.751 12.232-2.744 64.478-3.658 186.459-3.086l12.347 0.114 10.518-0.114c242.021-0.686 283.748 1.029 292.665 3.086 70.537 16.12 89.058 81.283 88.943 113.408a19.956 19.956 0 0 1-20.007 20.006c-11.089-0.114-20.007-9.032-20.007-20.006 0-2.858-1.257-61.506-57.732-74.31-8.117-1.372-64.363-2.858-283.748-2.172h-3.658c-0.115 0-0.229 0.114-0.343 0.114h-16.005c-0.231 0.001-0.459-0.113-0.573-0.113zM343.038 893.566c28.009 0 50.874 22.864 50.874 50.988 0 28.009-22.864 50.873-50.874 50.873-28.123 0-50.874-22.864-50.874-50.873 0-28.123 22.751-50.988 50.874-50.988z" fill="#024687" /></svg>