<?xml version="1.0" standalone="no"?><!DOCTYPE svg PUBLIC "-//W3C//DTD SVG 1.1//EN" "http://www.w3.org/Graphics/SVG/1.1/DTD/svg11.dtd"><svg class="icon" width="200px" height="200.00px" viewBox="0 0 1024 1024" version="1.1" xmlns="http://www.w3.org/2000/svg"><path d="M827.283 649.96l97.46 270.735H792.468l-75.814-211.87 20.843-58.178 30.234 33.441c3.779 4.237 9.162 6.642 14.889 6.642h0.229a20.513 20.513 0 0 0 14.889-6.871l29.545-33.899zM841.026 155.444c-31.494-31.494-88.527-30.807-89.215-30.807h-0.344c-10.421 0-19.011-8.36-19.239-18.896-0.229-10.536 8.131-19.354 18.781-19.583 2.635 0 63.562-1.031 106.966 33.098 43.405-34.128 104.332-33.212 107.08-33.098 10.651 0.229 19.012 9.047 18.782 19.698-0.229 10.651-9.047 19.011-19.698 18.782-1.146 0-57.835-0.572-89.214 30.807-3.665 3.779-8.59 5.612-13.515 5.612-1.145 0-2.29-0.115-3.436-0.344-1.03 0.229-2.176 0.344-3.321 0.344-4.923-0.001-9.847-1.833-13.627-5.613zM782.504 525.587l29.204 81.083-29.433 33.785-29.432-32.525zM792.468 178.349c10.651 0.344 19.011 9.162 18.668 19.813-0.229 10.65-9.162 19.011-19.698 18.667-1.031 0-43.405-0.344-67.111 29.204-3.779 4.81-9.392 7.215-15.003 7.215-0.916 0-1.832-0.229-2.749-0.344-0.916 0.115-1.718 0.344-2.634 0.344-5.611 0-11.224-2.405-15.003-7.215-23.82-29.547-66.652-29.204-67.11-29.204-10.537 0.687-19.47-8.017-19.813-18.667-0.229-10.651 8.017-19.469 18.668-19.813 2.29 0 50.047-0.916 85.893 30.922 35.845-31.838 83.602-30.922 85.892-30.922zM695.352 768.035l54.628 153.004H380.639v-0.114h-0.344l54.17-149.34 21.187-59.209 51.421-142.812 42.488 45.122a20.018 20.018 0 0 0 14.545 6.299h0.229a20.414 20.414 0 0 0 14.659-6.643l43.633-48.214 51.422 142.696 21.303 59.211z" fill="#97C5EA" /><path d="M565.48 407.283l41.802 116.128-43.404 47.985-41.573-44.091zM390.946 650.876l22.218 61.5-75.357 208.549H203.813l0.344-0.802 97.117-270.277 31.036 34.243c3.779 4.237 9.162 6.642 14.888 6.642h0.114c5.726-0.114 11.224-2.634 15.003-6.871l28.631-32.984zM345.938 525.815l29.547 81.886-28.631 32.754-30.12-33.327z" fill="#97C5EA" /><path d="M193.735 830.68l133.421-370.83c2.863-8.017 10.422-13.285 18.782-13.285 8.475 0 16.033 5.268 18.896 13.285l69.63 193.317 112.119-311.85c2.863-8.017 10.422-13.285 18.896-13.285 8.476 0 16.034 5.269 18.896 13.285L695.35 649.616l68.256-189.996c2.863-8.017 10.422-13.285 18.896-13.285 8.476 0 16.034 5.268 18.896 13.285L972.04 933.98c2.29 6.185 1.26 12.941-2.405 18.324-3.779 5.382-9.849 8.475-16.377 8.475H781.244c0.917 0 1.833-0.114 2.749-0.344a23276.96 23276.96 0 0 0-179.345-1.03c-26.57-0.115-53.14-0.229-79.709-0.229-60.125-0.114-120.365 0-180.605 0.229-57.949 0.229-115.898 0.572-173.962 1.03-23.363 0.229-46.726 0.344-70.089 0.572h-0.229c-10.995 0-19.927-8.818-20.042-19.813 0-0.458 0.115-0.688 0.115-1.03v-49.131l-40.198 40.083c-7.788 7.788-20.5 7.788-28.287 0-7.788-7.787-7.788-20.5 0-28.402l75.586-75.586c3.779-3.779 9.162-5.726 14.315-5.841 5.268 0 10.422 2.177 14.201 5.956l47.413 48.329-14.774 42.03-28.173-28.631v31.723c9.047 0 41.458-0.458 41.458-0.458l31.953-89.672c0 0.001 0 0.116 0.114 0.116z m731.008 90.015l-97.46-270.735-29.547 33.899a20.512 20.512 0 0 1-14.889 6.871h-0.229c-5.727 0-11.109-2.404-14.889-6.642l-30.234-33.441-20.843 58.178 75.814 211.87h132.277zM811.708 606.67l-29.204-81.083-29.661 82.343 29.433 32.525 29.432-33.785z m-61.729 314.369l-54.628-153.004-21.302-59.21-51.422-142.696-43.633 48.214a20.418 20.418 0 0 1-14.659 6.643h-0.229a20.018 20.018 0 0 1-14.545-6.299l-42.488-45.122-51.421 142.812-21.187 59.209-54.17 149.34h0.344v0.114H749.979zM607.282 523.411L565.48 407.283l-43.176 120.021 41.573 44.092 43.405-47.985zM413.164 712.376l-22.218-61.5-28.631 32.983c-3.779 4.237-9.277 6.757-15.003 6.871h-0.114c-5.727 0-11.109-2.404-14.888-6.642l-31.036-34.243-97.117 270.277-0.344 0.802h133.994l75.357-208.548z m-37.679-104.675l-29.547-81.886-29.204 81.313 30.12 33.327 28.631-32.754zM96.848 214.997c39.854 0 72.379 32.41 72.379 72.379 0 39.969-32.525 72.379-72.379 72.379-39.969 0-72.379-32.411-72.379-72.379-0.001-39.969 32.409-72.379 72.379-72.379z m32.295 72.379c0-17.866-14.544-32.296-32.295-32.296-17.866 0-32.296 14.43-32.296 32.296s14.43 32.296 32.296 32.296c17.751 0 32.295-14.43 32.295-32.296z" fill="#97C5EA" /><path d="M96.848 255.081c17.751 0 32.295 14.43 32.295 32.296s-14.544 32.296-32.295 32.296c-17.866 0-32.296-14.43-32.296-32.296s14.429-32.296 32.296-32.296zM115.744 674.927l76.846 78.22c7.788 7.902 7.673 20.614-0.229 28.287a19.951 19.951 0 0 1-14.086 5.841c-5.154 0-10.308-2.062-14.316-6.069l-62.645-63.676-61.385 61.27c-7.788 7.788-20.5 7.788-28.287 0-7.788-7.787-7.788-20.5 0-28.401l75.586-75.587c3.779-3.779 9.162-6.069 14.315-5.84 5.268 0 10.422 2.175 14.201 5.955z" fill="#97C5EA" /><path d="M163.958 857.363l-62.645-63.675-61.385 61.271c-7.788 7.787-20.5 7.787-28.287 0-7.788-7.788-7.788-20.5 0-28.402l75.586-75.586c3.779-3.779 9.162-5.383 14.315-5.841 5.268 0 10.422 2.176 14.201 5.955l67.226 68.371-14.544 41.229c-1.603-0.916-3.092-1.947-4.467-3.322z" fill="#97C5EA" /><path d="M861.641 627.056l97.46 270.735H826.826l-75.815-211.87 20.844-58.179 30.234 33.441c3.779 4.237 9.162 6.643 14.889 6.643h0.229a20.51 20.51 0 0 0 14.889-6.872l29.545-33.898z" fill="#FFFFFF" /><path d="M875.384 132.54c-31.494-31.494-88.527-30.807-89.215-30.807h-0.344c-10.422 0-19.011-8.36-19.24-18.896-0.229-10.536 8.132-19.354 18.782-19.583 2.634 0 63.562-1.031 106.966 33.097 43.404-34.128 104.332-33.212 107.08-33.097 10.651 0.229 19.011 9.047 18.782 19.698-0.229 10.65-9.048 19.011-19.698 18.782-1.146 0-57.835-0.573-89.215 30.807-3.664 3.779-8.589 5.612-13.514 5.612-1.145 0-2.29-0.115-3.436-0.344-1.03 0.229-2.176 0.344-3.321 0.344-4.924-0.002-9.848-1.834-13.627-5.613z" fill="#024687" /><path d="M816.861 502.682l29.204 81.084-29.432 33.784-29.433-32.525z" fill="#FFFFFF" /><path d="M826.825 155.444c10.65 0.344 19.011 9.162 18.667 19.813-0.229 10.651-9.161 19.011-19.697 18.667-1.031 0-43.405-0.343-67.111 29.204-3.779 4.81-9.392 7.215-15.003 7.215-0.916 0-1.832-0.229-2.749-0.344-0.916 0.115-1.718 0.344-2.634 0.344-5.611 0-11.224-2.405-15.003-7.215-23.82-29.547-66.652-29.204-67.111-29.204-10.536 0.688-19.469-8.017-19.813-18.667-0.229-10.65 8.017-19.469 18.668-19.813 2.29 0 50.047-0.916 85.893 30.921 35.846-31.837 83.603-30.921 85.893-30.921z" fill="#024687" /><path d="M729.709 745.13l54.628 153.005H414.996v-0.115h-0.344l54.17-149.34 21.187-59.209 51.421-142.812 42.488 45.123c3.779 4.008 9.048 6.299 14.545 6.299h0.229a20.417 20.417 0 0 0 14.659-6.643l43.634-48.215 51.422 142.697 21.302 59.21z" fill="#FFFFFF" /><path d="M599.838 384.378l41.802 116.128-43.406 47.985-41.572-44.091zM425.303 627.972l22.218 61.499-75.357 208.549H238.17l0.344-0.802L335.63 626.94l31.036 34.243c3.779 4.237 9.162 6.643 14.888 6.643h0.115c5.726-0.114 11.223-2.634 15.002-6.872l28.632-32.982zM380.295 502.911l29.547 81.885-28.631 32.754-30.12-33.326z" fill="#FFFFFF" /><path d="M228.092 807.774l133.421-370.83c2.863-8.017 10.421-13.285 18.782-13.285 8.475 0 16.034 5.268 18.896 13.285l69.631 193.317 112.119-311.849c2.863-8.017 10.422-13.285 18.896-13.285s16.033 5.268 18.896 13.285l110.975 308.299 68.256-189.996c2.863-8.017 10.422-13.285 18.896-13.285s16.033 5.268 18.896 13.285l170.642 474.359c2.29 6.185 1.26 12.941-2.405 18.324-3.779 5.383-9.849 8.475-16.377 8.475H815.602c0.916 0 1.833-0.114 2.749-0.344a23277.25 23277.25 0 0 0-179.345-1.03c-26.57-0.114-53.14-0.229-79.709-0.229-60.125-0.114-120.365 0-180.605 0.229-57.95 0.229-115.899 0.572-173.962 1.03-23.363 0.229-46.726 0.344-70.089 0.573h-0.229c-10.995 0-19.927-8.818-20.042-19.813 0-0.459 0.115-0.688 0.115-1.031v-49.131l-40.198 40.084c-7.788 7.787-20.5 7.787-28.288 0-7.788-7.788-7.788-20.5 0-28.402l75.586-75.586c3.779-3.779 9.162-5.727 14.316-5.841 5.268 0 10.421 2.176 14.201 5.955l47.413 48.329-14.773 42.03-28.173-28.631v31.724c9.047 0 41.458-0.458 41.458-0.458l31.952-89.673c-0.001 0.002-0.001 0.116 0.113 0.116z m731.009 90.017l-97.46-270.735-29.547 33.898a20.509 20.509 0 0 1-14.889 6.872h-0.229c-5.727 0-11.109-2.405-14.889-6.643l-30.234-33.441-20.844 58.179 75.815 211.87h132.277zM846.065 583.766l-29.204-81.083-29.661 82.342 29.433 32.524 29.432-33.783z m-61.728 314.369L729.709 745.13l-21.302-59.209-51.422-142.697-43.634 48.215a20.42 20.42 0 0 1-14.659 6.643h-0.229c-5.497 0-10.766-2.291-14.545-6.299L541.43 546.66l-51.421 142.812-21.187 59.209-54.17 149.34h0.344v0.115h369.341zM641.64 500.506l-41.802-116.127L556.662 504.4l41.572 44.091 43.406-47.985zM447.521 689.471l-22.218-61.499-28.631 32.982c-3.779 4.238-9.276 6.758-15.002 6.872h-0.115c-5.726 0-11.109-2.405-14.888-6.643L335.63 626.94l-97.116 270.277-0.344 0.802h133.993l75.358-208.548z m-37.679-104.675l-29.547-81.885-29.204 81.313 30.12 33.326 28.631-32.754zM131.205 192.092c39.854 0 72.379 32.41 72.379 72.379 0 39.969-32.525 72.379-72.379 72.379-39.969 0-72.379-32.41-72.379-72.379-0.001-39.969 32.41-72.379 72.379-72.379z m32.295 72.38c0-17.866-14.544-32.296-32.296-32.296-17.866 0-32.296 14.43-32.296 32.296s14.43 32.295 32.296 32.295c17.752 0 32.296-14.43 32.296-32.295z" fill="#024687" /><path d="M131.205 232.176c17.751 0 32.296 14.43 32.296 32.296s-14.544 32.295-32.296 32.295c-17.866 0-32.296-14.43-32.296-32.295 0-17.867 14.43-32.296 32.296-32.296z" fill="#FFFFFF" /><path d="M150.101 652.021l76.846 78.221c7.788 7.901 7.673 20.614-0.229 28.287a19.955 19.955 0 0 1-14.086 5.841c-5.153 0-10.307-2.062-14.315-6.07l-62.645-63.675-61.385 61.271c-7.788 7.787-20.5 7.787-28.288 0-7.788-7.788-7.788-20.5 0-28.402l75.586-75.586c3.779-3.779 9.162-6.07 14.316-5.841 5.267-0.001 10.421 2.175 14.2 5.954z" fill="#024687" /><path d="M198.316 834.459l-62.645-63.676-61.385 61.271c-7.788 7.788-20.5 7.788-28.288 0-7.788-7.787-7.788-20.5 0-28.402l75.586-75.586c3.779-3.779 9.162-5.382 14.316-5.841 5.268 0 10.421 2.177 14.201 5.956l67.226 68.371-14.545 41.229c-1.603-0.917-3.092-1.948-4.466-3.322z" fill="#024687" /></svg>